<?xml version="1.0" encoding="UTF-8"?>
<svg width="25px" height="22px" viewBox="0 0 25 22" version="1.1" xmlns="http://www.w3.org/2000/svg" xmlns:xlink="http://www.w3.org/1999/xlink">
    <title>Oval Copy 6</title>
    <g id="⚡-Active---Attribute.me" stroke="none" stroke-width="1" fill="none" fill-rule="evenodd">
        <g id="Mobile" transform="translate(-25.000000, -695.000000)" fill="#000B12">
            <g id="Bottom-Nav" transform="translate(0.000000, 685.000000)">
                <g id="Unselected" transform="translate(16.500000, 10.000000)">
                    <path d="M26.5,17 C27.8807119,17 29,18.1192881 29,19.5 C29,20.8807119 27.8807119,22 26.5,22 C25.1192881,22 24,20.8807119 24,19.5 C24,18.1192881 25.1192881,17 26.5,17 Z M11.5,14 C12.8807119,14 14,15.1192881 14,16.5 C14,17.8807119 12.8807119,19 11.5,19 C10.1192881,19 9,17.8807119 9,16.5 C9,15.1192881 10.1192881,14 11.5,14 Z M31,10 C32.1045695,10 33,10.8954305 33,12 C33,13.1045695 32.1045695,14 31,14 C29.8954305,14 29,13.1045695 29,12 C29,10.8954305 29.8954305,10 31,10 Z M20.5,6 C22.4329966,6 24,7.56700338 24,9.5 C24,11.4329966 22.4329966,13 20.5,13 C18.5670034,13 17,11.4329966 17,9.5 C17,7.56700338 18.5670034,6 20.5,6 Z M13,2 C14.1045695,2 15,2.8954305 15,4 C15,5.1045695 14.1045695,6 13,6 C11.8954305,6 11,5.1045695 11,4 C11,2.8954305 11.8954305,2 13,2 Z M25,0 C26.1045695,0 27,0.8954305 27,2 C27,3.1045695 26.1045695,4 25,4 C23.8954305,4 23,3.1045695 23,2 C23,0.8954305 23.8954305,0 25,0 Z" id="Oval-Copy-6"></path>
                </g>
            </g>
        </g>
    </g>
</svg>