<?xml version="1.0" encoding="UTF-8"?>
<svg width="22px" height="22px" viewBox="0 0 22 22" version="1.1" xmlns="http://www.w3.org/2000/svg" xmlns:xlink="http://www.w3.org/1999/xlink">
    <title>@ copy</title>
    <defs>
        <linearGradient x1="0%" y1="100%" x2="100%" y2="0%" id="linearGradient-1">
            <stop stop-color="#F3BA2F" offset="0%"></stop>
            <stop stop-color="#FF4954" offset="100%"></stop>
        </linearGradient>
    </defs>
    <g id="⚡-Active---Attribute.me" stroke="none" stroke-width="1" fill="none" fill-rule="evenodd">
        <g id="Mobile" transform="translate(-140.000000, -695.000000)" fill="url(#linearGradient-1)" fill-rule="nonzero">
            <g id="Bottom-Nav" transform="translate(0.000000, 685.000000)">
                <g id="Selected" transform="translate(118.500000, 10.000000)">
                    <path d="M34.048373,20.5009416 C34.048373,19.5132171 33.5322487,19.0193548 32.5,19.0193548 C31.3960573,19.0193548 30.3591398,18.8143369 29.3892473,18.4043011 C28.4193548,17.9942652 27.5637993,17.418638 26.8225806,16.6774194 C26.081362,15.9362007 25.5057348,15.0806452 25.0956989,14.1107527 C24.6856631,13.1408602 24.4806452,12.1039427 24.4806452,11 C24.4806452,9.88028674 24.6856631,8.83548387 25.0956989,7.8655914 C25.5057348,6.89569892 26.081362,6.04408602 26.8225806,5.31075269 C27.5637993,4.57741935 28.4193548,4.00179211 29.3892473,3.58387097 C30.3591398,3.16594982 31.3960573,2.95698925 32.5,2.95698925 C33.6197133,2.95698925 34.6645161,3.16594982 35.6344086,3.58387097 C36.6043011,4.00179211 37.455914,4.57741935 38.1892473,5.31075269 C38.9225806,6.04408602 39.4982079,6.89569892 39.916129,7.8655914 C40.3340502,8.83548387 40.5430108,9.88028674 40.5430108,11 C40.5430108,11.4888889 40.5075269,11.918638 40.4365591,12.2892473 C40.3655914,12.6598566 40.2315412,12.9476703 40.0344086,13.1526882 C39.837276,13.3577061 39.5494624,13.4602151 39.1709677,13.4602151 C38.9344086,13.4602151 38.7175627,13.4089606 38.5204301,13.3064516 C38.3232975,13.2039427 38.1655914,13.0541219 38.0473118,12.8569892 C37.9290323,12.6598566 37.8698925,12.4351254 37.8698925,12.1827957 L37.8698925,11 C37.8698925,10.0064516 37.6293907,9.10358423 37.1483871,8.29139785 C36.6673835,7.47921147 36.0207885,6.83261649 35.2086022,6.3516129 C34.3964158,5.87060932 33.4935484,5.63010753 32.5,5.63010753 C31.5222222,5.63010753 30.6272401,5.87060932 29.8150538,6.3516129 C29.0028674,6.83261649 28.3562724,7.47921147 27.8752688,8.29139785 C27.3942652,9.10358423 27.1537634,10.0064516 27.1537634,11 C27.1537634,11.9777778 27.3942652,12.8727599 27.8752688,13.6849462 C28.3562724,14.4971326 29.0028674,15.1437276 29.8150538,15.6247312 C30.6272401,16.1057348 31.5222222,16.3462366 32.5,16.3462366 C33.146595,16.3462366 33.7616487,16.2121864 34.3451613,15.944086 C34.9286738,15.6759857 35.4491039,15.3132616 35.9064516,14.855914 C36.3007168,15.297491 36.7777778,15.6562724 37.3376344,15.9322581 C37.897491,16.2082437 38.5007168,16.3462366 39.1473118,16.3462366 C40.109319,16.3462366 40.9136201,16.1293907 41.5602151,15.6956989 C42.20681,15.2620072 42.6917563,14.6430108 43.0150538,13.8387097 C43.3383513,13.0344086 43.5,12.088172 43.5,11 C43.5,9.48602151 43.216129,8.06272401 42.6483871,6.73010753 C42.0806452,5.39749104 41.2921147,4.2265233 40.2827957,3.2172043 C39.2734767,2.2078853 38.102509,1.41935484 36.7698925,0.851612903 C35.437276,0.283870968 34.0139785,0 32.5,0 C30.9860215,0 29.562724,0.283870968 28.2301075,0.851612903 C26.897491,1.41935484 25.7265233,2.2078853 24.7172043,3.2172043 C23.7078853,4.2265233 22.9193548,5.39749104 22.3516129,6.73010753 C21.783871,8.06272401 21.5,9.48602151 21.5,11 C21.5,12.5139785 21.783871,13.937276 22.3516129,15.2698925 C22.9193548,16.602509 23.7078853,17.7734767 24.7172043,18.7827957 C25.7265233,19.7921147 26.897491,20.5806452 28.2301075,21.1483871 C29.562724,21.716129 30.9860215,22 32.5,22 C33.5322487,21.9883522 34.048373,21.4886661 34.048373,20.5009416 Z M32.5,13.4602151 C32.0426523,13.4602151 31.6326165,13.3458781 31.2698925,13.1172043 C30.9071685,12.8885305 30.6272401,12.5849462 30.4301075,12.2064516 C30.2329749,11.827957 30.1344086,11.4258065 30.1344086,11 C30.1344086,10.5584229 30.2329749,10.1523297 30.4301075,9.78172043 C30.6272401,9.41111111 30.9071685,9.10752688 31.2698925,8.87096774 C31.6326165,8.6344086 32.0426523,8.51612903 32.5,8.51612903 C32.9731183,8.51612903 33.3870968,8.6344086 33.7419355,8.87096774 C34.0967742,9.10752688 34.3767025,9.41111111 34.5817204,9.78172043 C34.7867384,10.1523297 34.8892473,10.5584229 34.8892473,11 C34.8892473,11.4258065 34.7867384,11.827957 34.5817204,12.2064516 C34.3767025,12.5849462 34.0967742,12.8885305 33.7419355,13.1172043 C33.3870968,13.3458781 32.9731183,13.4602151 32.5,13.4602151 Z" id="@-copy"></path>
                </g>
            </g>
        </g>
    </g>
</svg>