<svg width="159" height="58" viewBox="0 0 159 58" fill="none" xmlns="http://www.w3.org/2000/svg">
<path fill-rule="evenodd" clip-rule="evenodd" d="M21.4589 43.2581C21.4589 43.2581 23.9164 43.2581 23.9164 45.6151C23.9164 47.9722 21.4589 48 21.4589 48C19.0559 48 16.7969 47.5484 14.6818 46.6452C12.5667 45.7419 10.7082 44.4875 9.10626 42.8817C7.50429 41.276 6.25276 39.4131 5.35166 37.293C4.45055 35.1729 4 32.9086 4 30.5C4 28.0914 4.45055 25.8271 5.35166 23.707C6.25276 21.5869 7.50429 19.724 9.10626 18.1183C10.7082 16.5125 12.5667 15.2581 14.6818 14.3548C16.7969 13.4516 19.0559 13 21.4589 13C23.8618 13 26.1209 13.4516 28.2359 14.3548C30.351 15.2581 32.2096 16.5125 33.8115 18.1183C35.4135 19.724 36.665 21.5869 37.5661 23.707C38.4672 25.8271 38.9178 28.0914 38.9178 30.5C38.9178 32.2312 38.6612 33.7366 38.1481 35.0161C37.635 36.2957 36.8653 37.2805 35.839 37.9704C34.8128 38.6604 33.5362 39.0054 32.0093 39.0054C30.9831 39.0054 30.0256 38.7858 29.1371 38.3468C28.2485 37.9077 27.4913 37.3369 26.8655 36.6344C26.1396 37.362 25.3136 37.9391 24.3875 38.3656C23.4613 38.7921 22.4851 39.0054 21.4589 39.0054C19.907 39.0054 18.4865 38.6228 17.1974 37.8575C15.9083 37.0923 14.8821 36.0636 14.1186 34.7715C13.3552 33.4794 12.9735 32.0556 12.9735 30.5C12.9735 28.9194 13.3552 27.483 14.1186 26.1909C14.8821 24.8987 15.9083 23.8701 17.1974 23.1048C18.4865 22.3396 19.907 21.957 21.4589 21.957C23.0358 21.957 24.4688 22.3396 25.7579 23.1048C27.047 23.8701 28.0732 24.8987 28.8367 26.1909C29.6001 27.483 29.9818 28.9194 29.9818 30.5V32.3817C29.9818 32.7832 30.0757 33.1407 30.2634 33.4543C30.4512 33.7679 30.7015 34.0063 31.0144 34.1694C31.3272 34.3324 31.6714 34.414 32.0469 34.414C32.6476 34.414 33.1044 34.2509 33.4173 33.9247C33.7302 33.5986 33.9429 33.1407 34.0556 32.5511C34.1682 31.9615 34.2245 31.2778 34.2245 30.5C34.2245 28.7186 33.8929 27.0565 33.2296 25.5134C32.5663 23.9704 31.6526 22.6156 30.4887 21.4489C29.3248 20.2823 27.9731 19.3665 26.4337 18.7016C24.8944 18.0367 23.2361 17.7043 21.4589 17.7043C19.7067 17.7043 18.061 18.0367 16.5216 18.7016C14.9822 19.3665 13.6243 20.2823 12.4479 21.4489C11.2714 22.6156 10.3578 23.9704 9.70699 25.5134C9.0562 27.0565 8.7308 28.7186 8.7308 30.5C8.7308 32.2563 9.0562 33.9059 9.70699 35.4489C10.3578 36.9919 11.2714 38.353 12.4479 39.5323C13.6243 40.7115 14.9822 41.6272 16.5216 42.2796C18.061 42.9319 19.7067 43.2581 21.4589 43.2581ZM19.5065 33.8683C20.0822 34.2321 20.733 34.414 21.4589 34.414C22.2098 34.414 22.8669 34.2321 23.4301 33.8683C23.9932 33.5045 24.4375 33.0215 24.7629 32.4194C25.0883 31.8172 25.251 31.1774 25.251 30.5C25.251 29.7975 25.0883 29.1514 24.7629 28.5618C24.4375 27.9722 23.9932 27.4892 23.4301 27.1129C22.8669 26.7366 22.2098 26.5484 21.4589 26.5484C20.733 26.5484 20.0822 26.7366 19.5065 27.1129C18.9308 27.4892 18.4865 27.9722 18.1736 28.5618C17.8607 29.1514 17.7043 29.7975 17.7043 30.5C17.7043 31.1774 17.8607 31.8172 18.1736 32.4194C18.4865 33.0215 18.9308 33.5045 19.5065 33.8683Z" fill="url(#paint0_linear)"/>
<path fill-rule="evenodd" clip-rule="evenodd" d="M69.3616 23.6388C70.4696 23.6388 71.3257 22.7933 71.3257 21.7332C71.3257 20.6604 70.4696 19.8275 69.3616 19.8275C68.2536 19.8275 67.3975 20.6604 67.3975 21.7332C67.3975 22.7933 68.2536 23.6388 69.3616 23.6388ZM45.4607 38.9976C47.0093 38.9976 48.0669 38.4423 48.0669 37.357C48.0669 36.4988 47.5759 36.1202 46.6694 36.0192L46.4302 35.994C45.637 35.9309 45.3096 35.527 45.3096 34.5679V28.0937H46.6064C47.4752 28.0937 48.0166 27.5511 48.0166 26.7055C48.0166 25.86 47.4752 25.3173 46.6064 25.3173H45.3096V23.8155C45.3096 22.6292 44.6171 21.8972 43.4714 21.8972C42.3257 21.8972 41.6332 22.6292 41.6332 23.8155V25.3173H40.9281C40.0594 25.3173 39.5054 25.8473 39.5054 26.7055C39.5054 27.5637 40.0594 28.0937 40.9281 28.0937H41.6332V35.3882C41.6332 37.7734 42.8796 38.9976 45.3348 38.9976H45.4607ZM54.3258 38.9976C55.8744 38.9976 56.932 38.4423 56.932 37.357C56.932 36.4988 56.441 36.1202 55.5345 36.0192L55.2953 35.994C54.5021 35.9309 54.1747 35.527 54.1747 34.5679V28.0937H55.4715C56.3403 28.0937 56.8817 27.5511 56.8817 26.7055C56.8817 25.86 56.3403 25.3173 55.4715 25.3173H54.1747V23.8155C54.1747 22.6292 53.4822 21.8972 52.3365 21.8972C51.1907 21.8972 50.4983 22.6292 50.4983 23.8155V25.3173H49.7932C48.9244 25.3173 48.3705 25.8473 48.3705 26.7055C48.3705 27.5637 48.9244 28.0937 49.7932 28.0937H50.4983V35.3882C50.4983 37.7734 51.7447 38.9976 54.1999 38.9976H54.3258ZM62.0577 37.1929C62.0577 38.4171 61.3401 39.1112 60.2195 39.1112C59.1115 39.1112 58.3813 38.4171 58.3813 37.1929V26.8948C58.3813 25.7211 59.0989 25.0397 60.1566 25.0397C61.189 25.0397 61.894 25.7211 61.894 26.8948V27.7782H61.9696C62.3221 26.0998 63.4301 25.1028 64.7773 25.1028C65.2683 25.1028 65.6586 25.2163 65.923 25.4435C66.2756 25.7211 66.4518 26.1755 66.4518 26.8065C66.4518 27.387 66.2756 27.8287 65.923 28.1316C65.5705 28.4345 65.0417 28.5985 64.324 28.6112C62.6495 28.6364 62.0577 29.5829 62.0577 31.1857V37.1929ZM71.1998 37.1929C71.1998 38.3918 70.4947 39.1112 69.3616 39.1112C68.2158 39.1112 67.5234 38.3918 67.5234 37.1929V26.9705C67.5234 25.7716 68.2158 25.0397 69.3616 25.0397C70.4947 25.0397 71.1998 25.7716 71.1998 26.9705V37.1929ZM75.2301 39.1112C76.3003 39.1112 77.0558 38.4675 77.0558 37.2434V36.524H77.1313C77.8867 38.1016 79.385 39.0607 81.3617 39.0607C84.7738 39.0607 86.8386 36.4357 86.8386 32.0817C86.8386 27.7151 84.7612 25.1028 81.3491 25.1028C79.4354 25.1028 77.9245 26.0619 77.1817 27.6647H77.1061V22.2885C77.1061 21.0264 76.3507 20.3576 75.2679 20.3576C74.1977 20.3576 73.4297 21.0264 73.4297 22.2885V37.2434C73.4297 38.4802 74.1725 39.1112 75.2301 39.1112ZM77.0935 32.0817C77.0935 34.53 78.3148 36.0949 80.1027 36.0949C81.9283 36.0949 83.074 34.5553 83.074 32.0817C83.074 29.6208 81.9283 28.0559 80.1027 28.0559C78.3148 28.0559 77.0935 29.6586 77.0935 32.0817ZM99.1283 39.1112C100.186 39.1112 100.904 38.4675 100.904 37.2434V26.9705C100.904 25.7085 100.148 25.0397 99.0654 25.0397C97.9952 25.0397 97.2272 25.7085 97.2272 26.9705V33.0661C97.2272 34.8582 96.2073 36.0318 94.5705 36.0318C92.9464 36.0318 92.0524 35.0727 92.0524 33.268V26.9705C92.0524 25.7085 91.297 25.0397 90.2142 25.0397C89.144 25.0397 88.376 25.7085 88.376 26.9705V34.0379C88.376 37.1929 90.3149 39.0985 93.236 39.0985C95.2756 39.0985 96.6102 38.1142 97.2775 36.4104H97.3531V37.2434C97.3531 38.4675 98.0707 39.1112 99.1283 39.1112ZM110.411 37.357C110.411 38.4423 109.353 38.9976 107.805 38.9976H107.679C105.223 38.9976 103.977 37.7734 103.977 35.3882V28.0937H103.272C102.403 28.0937 101.849 27.5637 101.849 26.7055C101.849 25.8473 102.403 25.3173 103.272 25.3173H103.977V23.8155C103.977 22.6292 104.67 21.8972 105.815 21.8972C106.961 21.8972 107.653 22.6292 107.653 23.8155V25.3173H108.95C109.819 25.3173 110.36 25.86 110.36 26.7055C110.36 27.5511 109.819 28.0937 108.95 28.0937H107.653V34.5679C107.653 35.527 107.981 35.9309 108.774 35.994L109.013 36.0192C109.92 36.1202 110.411 36.4988 110.411 37.357ZM117.878 39.1364C120.485 39.1364 122.575 38.152 123.469 36.4862C123.632 36.1833 123.72 35.8804 123.72 35.5901C123.72 34.7446 123.078 34.2398 122.285 34.2398C121.807 34.2398 121.479 34.3786 121.089 34.7824C120.094 35.9561 119.213 36.4104 117.866 36.4104C116.002 36.4104 114.794 35.0979 114.794 33.0913V32.9273H122.499C123.519 32.9273 124.098 32.3467 124.098 31.3245C124.098 27.652 121.53 25.027 117.702 25.027C113.711 25.027 111.18 27.7909 111.18 32.1448C111.18 36.524 113.661 39.1364 117.878 39.1364ZM114.831 30.6683H120.56C120.485 28.9014 119.351 27.753 117.74 27.753C116.128 27.753 114.957 28.9393 114.831 30.6683Z" fill="#000B12"/>
<defs>
<linearGradient id="paint0_linear" x1="21.4589" y1="65.5" x2="56.4588" y2="30.5823" gradientUnits="userSpaceOnUse">
<stop stop-color="#F3BA2F"/>
<stop offset="1" stop-color="#FF4954"/>
</linearGradient>
</defs>
</svg>
