<?xml version="1.0" encoding="UTF-8"?>
<svg width="121px" height="35px" viewBox="0 0 121 35" version="1.1" xmlns="http://www.w3.org/2000/svg" xmlns:xlink="http://www.w3.org/1999/xlink">
    <title>Logo</title>
    <defs>
        <linearGradient x1="0.234627054%" y1="100%" x2="99.7653729%" y2="0%" id="linearGradient-1">
            <stop stop-color="#F3BA2F" offset="0%"></stop>
            <stop stop-color="#FF4954" offset="100%"></stop>
        </linearGradient>
    </defs>
    <g id="Attribute.me" stroke="none" stroke-width="1" fill="none" fill-rule="evenodd">
        <g id="Desktop" transform="translate(-20.000000, -15.000000)" fill-rule="nonzero">
            <g id="Analytics" transform="translate(-1.000000, 0.000000)">
                <g id="Logo" transform="translate(17.000000, 2.000000)">
                    <path d="M23.9164262,45.6151343 C23.9164262,44.0437545 23.0972481,43.2580645 21.458892,43.2580645 C19.7067451,43.2580645 18.0609786,42.9318996 16.5215924,42.2795699 C14.9822062,41.6272401 13.6242924,40.7114695 12.447851,39.5322581 C11.2714095,38.3530466 10.3577901,36.9919355 9.70699265,35.4489247 C9.05619524,33.905914 8.73079654,32.2562724 8.73079654,30.5 C8.73079654,28.718638 9.05619524,27.0564516 9.70699265,25.5134409 C10.3577901,23.9704301 11.2714095,22.6155914 12.447851,21.4489247 C13.6242924,20.2822581 14.9822062,19.3664875 16.5215924,18.7016129 C18.0609786,18.0367384 19.7067451,17.7043011 21.458892,17.7043011 C23.2360695,17.7043011 24.8943514,18.0367384 26.4337375,18.7016129 C27.9731237,19.3664875 29.3247799,20.2822581 30.488706,21.4489247 C31.6526321,22.6155914 32.5662516,23.9704301 33.2295643,25.5134409 C33.8928771,27.0564516 34.2245334,28.718638 34.2245334,30.5 C34.2245334,31.2777778 34.1682144,31.9614695 34.0555764,32.5510753 C33.9429384,33.140681 33.7301777,33.5985663 33.4172943,33.9247312 C33.104411,34.2508961 32.6476013,34.4139785 32.0468652,34.4139785 C31.6714051,34.4139785 31.3272334,34.3324373 31.0143501,34.1693548 C30.7014667,34.0062724 30.45116,33.7679211 30.26343,33.4543011 C30.0757,33.140681 29.981835,32.7831541 29.981835,32.3817204 L29.981835,30.5 C29.981835,28.9193548 29.6001172,27.4829749 28.8366818,26.1908602 C28.0732464,24.8987455 27.046989,23.8700717 25.7579095,23.1048387 C24.46883,22.3396057 23.0358242,21.9569892 21.458892,21.9569892 C19.9069905,21.9569892 18.4865,22.3396057 17.1974205,23.1048387 C15.908341,23.8700717 14.8820836,24.8987455 14.1186481,26.1908602 C13.3552127,27.4829749 12.973495,28.9193548 12.973495,30.5 C12.973495,32.0555556 13.3552127,33.4793907 14.1186481,34.7715054 C14.8820836,36.0636201 15.908341,37.0922939 17.1974205,37.8575269 C18.4865,38.6227599 19.9069905,39.0053763 21.458892,39.0053763 C22.4851494,39.0053763 23.4613455,38.7921147 24.3874803,38.3655914 C25.3136151,37.9390681 26.1396272,37.3620072 26.8655166,36.6344086 C27.4912833,37.3369176 28.2484611,37.9077061 29.1370499,38.3467742 C30.0256386,38.7858423 30.9830617,39.0053763 32.0093192,39.0053763 C33.53619,39.0053763 34.8127542,38.6603943 35.8390116,37.9704301 C36.8652691,37.2804659 37.6349622,36.2956989 38.1480909,35.016129 C38.6612196,33.7365591 38.917784,32.2311828 38.917784,30.5 C38.917784,28.0913978 38.4672319,25.8270609 37.5661278,23.7069892 C36.6650237,21.5869176 35.4134902,19.7240143 33.8115274,18.1182796 C32.2095645,16.5125448 30.3510373,15.2580645 28.2359458,14.3548387 C26.1208542,13.4516129 23.8618363,13 21.458892,13 C19.0559477,13 16.7969298,13.4516129 14.6818382,14.3548387 C12.5667466,15.2580645 10.7082194,16.5125448 9.10625658,18.1182796 C7.50429373,19.7240143 6.25276026,21.5869176 5.35165615,23.7069892 C4.45055205,25.8270609 4,28.0913978 4,30.5 C4,32.9086022 4.45055205,35.1729391 5.35165615,37.2930108 C6.25276026,39.4130824 7.50429373,41.2759857 9.10625658,42.8817204 C10.7082194,44.4874552 12.5667466,45.7419355 14.6818382,46.6451613 C16.7969298,47.5483871 19.0559477,48 21.458892,48 C23.0972481,47.9814694 23.9164262,47.1865142 23.9164262,45.6151343 Z M21.458892,34.4139785 C20.7330026,34.4139785 20.0822052,34.2320789 19.5064998,33.8682796 C18.9307944,33.5044803 18.4865,33.0215054 18.1736166,32.4193548 C17.8607332,31.8172043 17.7042916,31.1774194 17.7042916,30.5 C17.7042916,29.797491 17.8607332,29.1514337 18.1736166,28.561828 C18.4865,27.9722222 18.9307944,27.4892473 19.5064998,27.1129032 C20.0822052,26.7365591 20.7330026,26.5483871 21.458892,26.5483871 C22.2098121,26.5483871 22.8668671,26.7365591 23.4300572,27.1129032 C23.9932473,27.4892473 24.4375417,27.9722222 24.7629404,28.561828 C25.0883391,29.1514337 25.2510384,29.797491 25.2510384,30.5 C25.2510384,31.1774194 25.0883391,31.8172043 24.7629404,32.4193548 C24.4375417,33.0215054 23.9932473,33.5044803 23.4300572,33.8682796 C22.8668671,34.2320789 22.2098121,34.4139785 21.458892,34.4139785 Z" id="@" fill="url(#linearGradient-1)"></path>
                    <path d="M45.4606716,38.9975962 C47.0093089,38.9975962 48.0669149,38.4423077 48.0669149,37.3569712 C48.0669149,36.4987981 47.5758835,36.1201923 46.6693641,36.0192308 L46.4301437,35.9939904 C45.6369393,35.9308894 45.309585,35.5270433 45.309585,34.5679087 L45.309585,28.09375 L46.6064114,28.09375 C47.4751591,28.09375 48.0165527,27.5510817 48.0165527,26.7055288 C48.0165527,25.859976 47.4751591,25.3173077 46.6064114,25.3173077 L45.309585,25.3173077 L45.309585,23.8155048 C45.309585,22.6292067 44.617105,21.8972356 43.4713652,21.8972356 C42.3256254,21.8972356 41.6331453,22.6292067 41.6331453,23.8155048 L41.6331453,25.3173077 L40.9280747,25.3173077 C40.0593269,25.3173077 39.5053428,25.8473558 39.5053428,26.7055288 C39.5053428,27.5637019 40.0593269,28.09375 40.9280747,28.09375 L41.6331453,28.09375 L41.6331453,35.3882212 C41.6331453,37.7734375 42.8796095,38.9975962 45.3347661,38.9975962 L45.4606716,38.9975962 Z M54.3257598,38.9975962 C55.8743971,38.9975962 56.932003,38.4423077 56.932003,37.3569712 C56.932003,36.4987981 56.4409717,36.1201923 55.5344523,36.0192308 L55.2952319,35.9939904 C54.5020274,35.9308894 54.1746732,35.5270433 54.1746732,34.5679087 L54.1746732,28.09375 L55.4714996,28.09375 C56.3402473,28.09375 56.8816408,27.5510817 56.8816408,26.7055288 C56.8816408,25.859976 56.3402473,25.3173077 55.4714996,25.3173077 L54.1746732,25.3173077 L54.1746732,23.8155048 C54.1746732,22.6292067 53.4821931,21.8972356 52.3364533,21.8972356 C51.1907135,21.8972356 50.4982334,22.6292067 50.4982334,23.8155048 L50.4982334,25.3173077 L49.7931628,25.3173077 C48.9244151,25.3173077 48.370431,25.8473558 48.370431,26.7055288 C48.370431,27.5637019 48.9244151,28.09375 49.7931628,28.09375 L50.4982334,28.09375 L50.4982334,35.3882212 C50.4982334,37.7734375 51.7446976,38.9975962 54.1998543,38.9975962 L54.3257598,38.9975962 Z M60.2194788,39.1111779 C61.3400375,39.1111779 62.0576987,38.4170673 62.0576987,37.1929087 L62.0576987,31.1856971 C62.0576987,29.5829327 62.6494544,28.6364183 64.3239972,28.6111779 C65.0416583,28.5985577 65.5704613,28.4344952 65.9229966,28.1316106 C66.275532,27.828726 66.4517996,27.3870192 66.4517996,26.8064904 C66.4517996,26.1754808 66.275532,25.7211538 65.9229966,25.4435096 C65.6585951,25.2163462 65.2682882,25.1027644 64.7772569,25.1027644 C63.4300683,25.1027644 62.3221002,26.0997596 61.9695648,27.7782452 L61.8940216,27.7782452 L61.8940216,26.8948317 C61.8940216,25.7211538 61.1889509,25.0396635 60.1565261,25.0396635 C59.0989201,25.0396635 58.3812589,25.7211538 58.3812589,26.8948317 L58.3812589,37.1929087 C58.3812589,38.4170673 59.1115107,39.1111779 60.2194788,39.1111779 Z M69.361559,23.6388221 C70.4695271,23.6388221 71.3256843,22.7932692 71.3256843,21.7331731 C71.3256843,20.6604567 70.4695271,19.827524 69.361559,19.827524 C68.2535908,19.827524 67.3974336,20.6604567 67.3974336,21.7331731 C67.3974336,22.7932692 68.2535908,23.6388221 69.361559,23.6388221 Z M69.361559,39.1111779 C70.4947082,39.1111779 71.1997789,38.3918269 71.1997789,37.1929087 L71.1997789,26.9705529 C71.1997789,25.7716346 70.4947082,25.0396635 69.361559,25.0396635 C68.2158192,25.0396635 67.5233391,25.7716346 67.5233391,26.9705529 L67.5233391,37.1929087 C67.5233391,38.3918269 68.2158192,39.1111779 69.361559,39.1111779 Z M75.2300969,39.1111779 C76.3002934,39.1111779 77.0557263,38.4675481 77.0557263,37.2433894 L77.0557263,36.5240385 L77.1312695,36.5240385 C77.8867024,38.1015625 79.3849775,39.0606971 81.3616934,39.0606971 C84.7737316,39.0606971 86.8385814,36.4356971 86.8385814,32.0817308 C86.8385814,27.7151442 84.7611411,25.1027644 81.3491028,25.1027644 C79.4353397,25.1027644 77.924474,26.061899 77.1816317,27.6646635 L77.1060885,27.6646635 L77.1060885,22.2884615 C77.1060885,21.0264423 76.3506556,20.3575721 75.2678686,20.3575721 C74.1976721,20.3575721 73.4296487,21.0264423 73.4296487,22.2884615 L73.4296487,37.2433894 C73.4296487,38.4801683 74.172491,39.1111779 75.2300969,39.1111779 Z M80.1026387,36.0949519 C78.314781,36.0949519 77.0934979,34.5300481 77.0934979,32.0817308 C77.0934979,29.6586538 78.314781,28.0558894 80.1026387,28.0558894 C81.928268,28.0558894 83.0740078,29.6207933 83.0740078,32.0817308 C83.0740078,34.5552885 81.928268,36.0949519 80.1026387,36.0949519 Z M99.1282983,39.1111779 C100.185904,39.1111779 100.903565,38.4675481 100.903565,37.2433894 L100.903565,26.9705529 C100.903565,25.7085337 100.148133,25.0396635 99.0653456,25.0396635 C97.9951491,25.0396635 97.2271257,25.7085337 97.2271257,26.9705529 L97.2271257,33.0661058 C97.2271257,34.8581731 96.2072914,36.031851 94.5705203,36.031851 C92.9463397,36.031851 92.0524109,35.0727163 92.0524109,33.2680288 L92.0524109,26.9705529 C92.0524109,25.7085337 91.296978,25.0396635 90.214191,25.0396635 C89.1439945,25.0396635 88.3759711,25.7085337 88.3759711,26.9705529 L88.3759711,34.0378606 C88.3759711,37.1929087 90.3149154,39.0985577 93.2359223,39.0985577 C95.2755909,39.0985577 96.6101889,38.1141827 97.2774879,36.4104567 L97.3530312,36.4104567 L97.3530312,37.2433894 C97.3530312,38.4675481 98.0706924,39.1111779 99.1282983,39.1111779 Z M107.804528,38.9975962 C109.353166,38.9975962 110.410772,38.4423077 110.410772,37.3569712 C110.410772,36.4987981 109.91974,36.1201923 109.013221,36.0192308 L108.774,35.9939904 C107.980796,35.9308894 107.653442,35.5270433 107.653442,34.5679087 L107.653442,28.09375 L108.950268,28.09375 C109.819016,28.09375 110.360409,27.5510817 110.360409,26.7055288 C110.360409,25.859976 109.819016,25.3173077 108.950268,25.3173077 L107.653442,25.3173077 L107.653442,23.8155048 C107.653442,22.6292067 106.960962,21.8972356 105.815222,21.8972356 C104.669482,21.8972356 103.977002,22.6292067 103.977002,23.8155048 L103.977002,25.3173077 L103.271931,25.3173077 C102.403184,25.3173077 101.849199,25.8473558 101.849199,26.7055288 C101.849199,27.5637019 102.403184,28.09375 103.271931,28.09375 L103.977002,28.09375 L103.977002,35.3882212 C103.977002,37.7734375 105.223466,38.9975962 107.678623,38.9975962 L107.804528,38.9975962 Z M117.878309,39.1364183 C120.484552,39.1364183 122.574583,38.1520433 123.468512,36.4861779 C123.632189,36.1832933 123.720323,35.8804087 123.720323,35.5901442 C123.720323,34.7445913 123.078205,34.2397837 122.285,34.2397837 C121.80656,34.2397837 121.479205,34.3786058 121.088898,34.7824519 C120.094245,35.9561298 119.212907,36.4104567 117.865718,36.4104567 C116.002317,36.4104567 114.793625,35.0979567 114.793625,33.0913462 L114.793625,32.9272837 L122.49904,32.9272837 C123.518874,32.9272837 124.098039,32.3467548 124.098039,31.3245192 C124.098039,27.6520433 121.529568,25.0270433 117.702041,25.0270433 C113.710838,25.0270433 111.180138,27.7908654 111.180138,32.1448317 C111.180138,36.5240385 113.660476,39.1364183 117.878309,39.1364183 Z M120.560095,30.6682692 L114.831397,30.6682692 C114.957302,28.9393029 116.128223,27.7530048 117.739813,27.7530048 C119.351403,27.7530048 120.484552,28.9014423 120.560095,30.6682692 Z" id="ttribute" fill="#000B12"></path>
                    <path d="M103.62,48 C103.946667,48 104.251667,47.9533333 104.535,47.86 C104.818333,47.7666667 105.066667,47.6333333 105.28,47.46 C105.493333,47.2866667 105.661667,47.0783333 105.785,46.835 C105.908333,46.5916667 105.97,46.3166667 105.97,46.01 C105.97,45.59 105.858333,45.2383333 105.635,44.955 C105.411667,44.6716667 105.116667,44.4633333 104.75,44.33 L104.75,44.33 L104.75,44.25 C105.023333,44.1166667 105.251667,43.9216667 105.435,43.665 C105.618333,43.4083333 105.71,43.09 105.71,42.71 C105.71,42.45 105.653333,42.2066667 105.54,41.98 C105.426667,41.7533333 105.271667,41.555 105.075,41.385 C104.878333,41.215 104.646667,41.0816667 104.38,40.985 C104.113333,40.8883333 103.826667,40.84 103.52,40.84 L103.52,40.84 L100.72,40.84 L100.72,48 L103.62,48 Z M103.42,43.76 L102.07,43.76 L102.07,42.05 L103.46,42.05 C103.753333,42.05 103.983333,42.1333333 104.15,42.3 C104.316667,42.4666667 104.4,42.6666667 104.4,42.9 C104.4,43.1333333 104.315,43.335 104.145,43.505 C103.975,43.675 103.733333,43.76 103.42,43.76 L103.42,43.76 Z M103.57,46.76 L102.07,46.76 L102.07,44.92 L103.53,44.92 C103.89,44.92 104.161667,45.0083333 104.345,45.185 C104.528333,45.3616667 104.62,45.5833333 104.62,45.85 C104.62,46.1166667 104.53,46.335 104.35,46.505 C104.17,46.675 103.91,46.76 103.57,46.76 L103.57,46.76 Z M111.433333,48 L111.433333,46.72 L108.243333,46.72 L108.243333,45.06 L111.113333,45.06 L111.113333,43.78 L108.243333,43.78 L108.243333,42.12 L111.433333,42.12 L111.433333,40.84 L106.893333,40.84 L106.893333,48 L111.433333,48 Z M115.426667,48 L115.426667,42.12 L117.426667,42.12 L117.426667,40.84 L112.076667,40.84 L112.076667,42.12 L114.076667,42.12 L114.076667,48 L115.426667,48 Z M118.51,48 L119.1,46.29 L121.86,46.29 L122.45,48 L123.94,48 L121.25,40.84 L119.71,40.84 L117.02,48 L118.51,48 Z M121.42,45.05 L119.54,45.05 L120.18,43.26 L120.44,42.39 L120.52,42.39 L120.78,43.26 L121.42,45.05 Z" id="BETA" fill="#FD624F"></path>
                </g>
            </g>
        </g>
    </g>
</svg>