<?xml version="1.0" encoding="UTF-8"?>
<svg width="23px" height="19px" viewBox="0 0 23 19" version="1.1" xmlns="http://www.w3.org/2000/svg" xmlns:xlink="http://www.w3.org/1999/xlink">
    <title>Path Copy</title>
    <g id="⚡-Active---Attribute.me" stroke="none" stroke-width="1" fill="none" fill-rule="evenodd">
        <g id="Mobile" transform="translate(-271.000000, -697.000000)" fill="#DFE0E1" fill-rule="nonzero">
            <g id="Bottom-Nav" transform="translate(0.000000, 685.000000)">
                <g id="Disabled" transform="translate(246.000000, 12.189619)">
                    <path d="M47.1499956,2.13023862 C46.3334617,2.49275923 45.4582338,2.73616566 44.5381227,2.84664807 C45.4772231,2.2838781 46.1988111,1.39311373 46.5371634,0.333173388 C45.6602094,0.852785831 44.684857,1.23084292 43.6508107,1.43454463 C42.8221926,0.550685398 41.6414119,0 40.3346124,0 C37.8245905,0 35.7892973,2.03356652 35.7892973,4.54358884 C35.7892973,4.89920386 35.8307282,5.24618755 35.9084111,5.57936138 C32.1312939,5.38946952 28.7840222,3.58032017 26.541575,0.830344203 C26.1497076,1.50359613 25.9270167,2.2838781 25.9270167,3.11594893 C25.9270167,4.69204935 26.7280141,6.08343734 27.9484991,6.89997125 C27.2027428,6.875803 26.5018703,6.67037511 25.8890381,6.33029613 C25.8890381,6.3492854 25.8890381,6.36827468 25.8890381,6.38726395 C25.8890381,8.59000687 27.4565072,10.4250502 29.5332313,10.8445382 C29.153448,10.9481155 28.7512231,11.0033567 28.3369141,11.0033567 C28.043445,11.0033567 27.7586076,10.9757361 27.4806755,10.9204948 C28.0607081,12.7244652 29.7386596,14.0416227 31.7256162,14.0778747 C30.1719574,15.2966339 28.2126214,16.0216747 26.0823823,16.0216747 C25.7146832,16.0216747 25.3538892,16.0009592 25,15.9578022 C27.0093986,17.2490652 29.3985806,18 31.9655703,18 C40.3242549,18 44.8954643,11.075861 44.8954643,5.07183261 C44.8954643,4.87503605 44.8902853,4.67651287 44.8833802,4.48316867 C45.7706918,3.84271588 46.5406162,3.04171845 47.1499956,2.13023862 Z" id="Path-Copy"></path>
                </g>
            </g>
        </g>
    </g>
</svg>