<?xml version="1.0" encoding="UTF-8"?>
<svg width="17px" height="22px" viewBox="0 0 17 22" version="1.1" xmlns="http://www.w3.org/2000/svg" xmlns:xlink="http://www.w3.org/1999/xlink">
    <title>SKALD_Logo_Icon</title>
    <defs>
        <linearGradient x1="49.997%" y1="59.751%" x2="49.997%" y2="40.173%" id="linearGradient-1">
            <stop stop-color="#E50000" offset="0%"></stop>
            <stop stop-color="#FF7600" offset="100%"></stop>
        </linearGradient>
    </defs>
    <g id="⚡-Active---Attribute.me" stroke="none" stroke-width="1" fill="none" fill-rule="evenodd">
        <g id="Mobile" transform="translate(-387.000000, -695.000000)" fill-rule="nonzero">
            <g id="Bottom-Nav" transform="translate(0.000000, 685.000000)">
                <g id="SKALD-Marketers" transform="translate(378.500000, 10.000000)">
                    <g id="Disabled" transform="translate(0.000000, 0.000000)">
                        <g id="SKALD_Logo_Icon" transform="translate(8.500000, 0.000000)">
                            <g id="Group" transform="translate(0.000000, 0.000000)">
                                <g transform="translate(0.000000, 0.000000)">
                                    <polygon id="Path" fill="#EBEBEC" points="8.26706171 17.4340338 9.21786327 17.4969656 9.76014821 18.1434672 8.30021796 18.0483224 8.30017399 18.0439716 8.26706171 18.046125 8.23394944 18.0439716 8.23386149 18.0483224 6.77397522 18.1434672 7.31621618 17.4969656"></polygon>
                                    <path d="M0.998460369,14.5689121 C1.0124112,14.6719589 1.0272827,14.7747221 1.04307487,14.8772016 C1.23939943,16.1499892 1.59207592,17.3604488 2.41287993,18.1158233 C2.4527586,18.1525175 2.49375684,18.1881173 2.53587466,18.2226229 C2.59305335,18.2694482 2.65159612,18.3149402 2.7130649,18.3575251 C2.75541137,18.3868663 2.79880795,18.4151583 2.84325462,18.4424009 C2.93362062,18.4977138 3.02704242,18.5478785 3.12307311,18.5926551 C3.17193094,18.6154596 3.2219249,18.6371074 3.273055,18.6575983 C3.4963764,18.74702 3.71504361,18.8428781 3.92843352,18.9436042 C6.44637962,20.1322156 8.22831991,22 8.22831991,22 L8.22833178,22 L8.22833178,22 C8.23152868,21.9979969 8.23565386,21.9947905 8.23908602,21.9924825 C8.25619842,21.9809948 8.27599059,21.9660129 8.29883894,21.9471786 C8.30390428,21.9430036 8.30895819,21.9388682 8.31430585,21.9343342 C8.32930296,21.9216544 8.34541203,21.9076493 8.36263306,21.8923189 C8.54130433,21.7334555 8.83997528,21.4360134 9.25587291,21.0716666 C9.29316533,21.0389995 9.33138648,21.0058289 9.37053636,20.9721548 C9.43001826,20.9210007 9.49167129,20.8687941 9.55549545,20.815535 C9.58881572,20.7877557 9.62288794,20.7596887 9.65738275,20.7314164 C9.7110947,20.6874045 9.76623653,20.6428776 9.82280824,20.5978356 C9.85876063,20.5692172 9.89526974,20.5404377 9.93233555,20.5114973 C10.0035593,20.4558747 10.076895,20.3997272 10.1523426,20.3430549 C10.9919978,19.7085442 11.9051331,19.1775123 12.8719843,18.761453 C12.9546351,18.7261936 13.0383659,18.6915754 13.1231767,18.6575983 C16.1940608,17.4279173 15.0894182,11.9398802 16.1556044,10.1878227 C16.2052137,10.1050731 16.2634797,10.0278252 16.3294214,9.95737966 C16.3509885,9.93463953 16.3732529,9.91306018 16.3962264,9.89264161 L16.3962264,9.8926359 C16.3962264,9.8926359 16.3666439,9.90204447 16.3145539,9.92036634 L16.309124,9.92229253 C16.2488772,9.94355883 16.1605761,9.97602454 16.0536802,10.0192084 C16.0399996,10.024729 16.0260291,10.0304257 16.0117687,10.0362985 C15.991882,10.0444852 15.9714864,10.0530128 15.9505818,10.0618812 C15.9189189,10.075295 15.8861982,10.0894703 15.8524195,10.1044072 C15.7512956,10.149218 15.6417916,10.2008353 15.5288084,10.2589778 C15.4668458,10.2908564 15.404049,10.3246845 15.3409699,10.3604335 C15.3155006,10.374863 15.2900544,10.3895982 15.2646314,10.4046391 C15.1645651,10.4638091 15.0651922,10.5276902 14.9695672,10.5961857 C14.8997064,10.646235 14.8319142,10.6985818 14.7675656,10.7534344 C14.718508,10.7952441 14.6713311,10.8383454 14.6268455,10.8828745 C14.6258701,10.8838492 14.6248003,10.8847774 14.6238368,10.8857578 C14.5876484,10.9221115 14.5532939,10.9593481 14.5207732,10.9974676 C14.4255146,11.1063818 14.3485376,11.2299974 14.2928328,11.363512 C14.2929155,11.3632004 14.8640943,9.19060358 13.5174194,6.57132123 C13.4983087,6.5341686 13.4788299,6.49693393 13.4589831,6.45961722 C13.3458355,6.24716866 13.2195598,6.03229262 13.0801558,5.81498911 C13.0433568,5.7579022 13.0058876,5.70073047 12.9671141,5.64340449 C12.9013671,5.54619414 12.8327249,5.44869081 12.7611874,5.35089451 L12.7611756,5.35088879 C12.6847483,5.81275057 12.5738374,6.26824765 12.4293725,6.713563 C12.4177019,6.75072707 12.4057586,6.78827874 12.3933255,6.82651159 C12.3765187,6.87819963 12.3588421,6.93102678 12.3406127,6.98452982 C12.3151202,7.05935103 12.2882408,7.13574641 12.2599745,7.21371597 C12.2599745,7.21370454 12.2600686,7.20846564 12.2600453,7.19825856 C12.2600334,7.1907999 12.2599393,7.1804223 12.2597278,7.16774277 C12.2595044,7.15381163 12.2590814,7.13667237 12.2584112,7.11672052 C12.2581526,7.10908549 12.2578549,7.10101598 12.2575181,7.09251198 C12.2565898,7.06943155 12.2553673,7.04354907 12.2536515,7.0143429 C12.2528406,7.00056514 12.2518886,6.98592953 12.2508657,6.97083556 C12.2471403,6.91585282 12.241863,6.85217916 12.234529,6.78075724 C12.2313201,6.749555 12.2276962,6.71688787 12.2236574,6.68275585 C12.2180393,6.63545501 12.2116455,6.58569931 12.2041708,6.53307784 C12.2003627,6.50625007 12.1961786,6.47851172 12.19183,6.45037477 C12.1830854,6.39380599 12.1733302,6.33487112 12.1622119,6.27326384 C12.161883,6.27142554 12.1615083,6.26951078 12.1611776,6.26766677 C12.144747,6.17702911 12.1254561,6.08139176 12.103305,5.98075473 L12.1032109,5.98037899 C12.0919161,5.9295545 12.079787,5.87756703 12.0668235,5.82441658 C12.0651085,5.81736883 12.0632506,5.81016287 12.0614991,5.80307425 C12.02986,5.67513189 11.9933076,5.54101677 11.9507964,5.40147509 C11.9492921,5.39656535 11.9476817,5.3915497 11.9461655,5.38662107 C11.6320719,4.36353642 11.1151361,3.41410091 10.4261556,2.59487912 L10.4261556,2.59489055 C10.4261556,2.59514324 10.4307038,5.30048839 9.59050739,5.30048839 C9.41867624,5.30048839 9.20342931,5.16328424 8.93430612,4.83282443 C8.76946435,4.63090193 8.63263785,4.4076746 8.52752954,4.1691836 C8.06144021,2.27184412 9.05580222,0 9.05580222,0 L9.05579035,0 L9.05579035,0 C8.49402185,0.519888951 7.97128124,1.08037239 7.49180005,1.67691326 L7.48901431,1.6803666 C7.39185126,1.80023358 7.29363035,1.92509278 7.19435158,2.05494418 C7.18808707,2.06315433 7.18181069,2.07154114 7.17554662,2.07978644 C6.95682093,2.36770266 6.73641367,2.67835917 6.52498675,3.00749135 C6.52374097,3.00944127 6.52250663,3.01142064 6.52126085,3.01337056 C6.45007195,3.12432161 6.38003898,3.23727957 6.31116194,3.35224443 C6.3076946,3.35805288 6.30428619,3.36394923 6.30081886,3.36976954 C5.9693684,3.91815575 5.69207187,4.49745882 5.47284536,5.09949764 L5.23304522,3.62867472 L5.23303335,3.62867472 C5.20373272,3.66358402 5.17501593,3.69846944 5.14688295,3.73333098 C5.14121781,3.740355 5.13584553,3.74736144 5.13021688,3.7543815 C5.10793316,3.78220775 5.0857431,3.81002212 5.06418802,3.83779519 C5.05607837,3.84824311 5.048368,3.85866202 5.04035422,3.86910993 C5.02169042,3.89344152 5.00295582,3.91777883 4.98484433,3.94206164 C4.97445464,3.95598619 4.96454646,3.96986987 4.95434498,3.98377727 C4.93911289,4.00452017 4.9236926,4.02526966 4.90886023,4.04597168 C4.88949109,4.07299897 4.87073275,4.09996781 4.85201002,4.1269305 C4.84678022,4.13447133 4.84129141,4.14204161 4.83610822,4.14958289 C4.81840788,4.17530056 4.80130735,4.20094748 4.7841945,4.22660055 C4.77835346,4.23535124 4.77225342,4.24413533 4.76648274,4.25287635 C4.75388336,4.27196949 4.74182443,4.29097824 4.72954254,4.31002039 C4.71969241,4.32529015 4.70957404,4.34058892 4.6999363,4.35582352 C4.68566812,4.37835813 4.67196369,4.40081627 4.65813041,4.42328188 C4.65098466,4.43489263 4.64355661,4.44654468 4.63652828,4.45813785 C4.62377587,4.47916289 4.61155116,4.50008816 4.59918836,4.52104904 C4.59150174,4.53406344 4.58353369,4.54712488 4.57598778,4.56011775 C4.563271,4.58203535 4.55105947,4.60384747 4.5387301,4.62568332 C4.53201926,4.63758192 4.52503798,4.64952754 4.51844454,4.66140285 C4.50772549,4.68067792 4.49751301,4.69983522 4.48711057,4.71904569 C4.47931797,4.73344047 4.47126725,4.74789369 4.46363955,4.76225332 C4.45556508,4.77745891 4.44791364,4.79256343 4.44002562,4.80772157 C4.43054091,4.82595158 4.42085612,4.84422818 4.41164185,4.86238745 C4.40473093,4.87601096 4.39821973,4.88953207 4.39146183,4.90311032 C4.38170669,4.92269654 4.37179851,4.94232406 4.36236085,4.96182326 C4.35568519,4.97561905 4.34939737,4.98930277 4.3428743,5.00305724 C4.33378887,5.02220311 4.32453722,5.041396 4.31574774,5.06044782 C4.30911913,5.07484831 4.30286649,5.0891196 4.29639047,5.10346164 C4.28811636,5.1217734 4.27967735,5.14013834 4.27167368,5.15836176 C4.26614969,5.17095955 4.2609665,5.18343957 4.25555992,5.1959899 C4.24701537,5.21583496 4.23834154,5.23572046 4.2301026,5.25545389 C4.22414415,5.26974847 4.21854937,5.28390242 4.2127435,5.29814427 C4.20547991,5.31592779 4.19806373,5.33377546 4.19104727,5.35146494 C4.18561695,5.36519612 4.18052786,5.37878579 4.17523913,5.39245808 C4.16819892,5.41062921 4.16100613,5.42885879 4.15422449,5.44692401 C4.15025189,5.45751914 4.14656161,5.4679965 4.14267125,5.47855604 C4.13498463,5.49940485 4.12721578,5.52029497 4.11985852,5.54100446 C4.11492202,5.55490572 4.11032632,5.56864701 4.10553142,5.58247927 C4.09953735,5.59976926 4.09340212,5.61713573 4.08764287,5.63430838 C4.08345877,5.64678225 4.07959215,5.65909438 4.07552545,5.67149574 C4.06951951,5.68983694 4.06338429,5.70824274 4.05762548,5.72645474 C4.05418189,5.73734344 4.05102017,5.74807921 4.04767069,5.75892089 C4.04159395,5.77852468 4.03544597,5.79818737 4.02966473,5.81763866 C4.02731389,5.82555524 4.02517501,5.83334877 4.02287122,5.84124206 C4.01639564,5.86339125 4.00990774,5.88554748 4.00379626,5.90748309 C4.00143355,5.91596966 3.99929467,5.92432087 3.99698033,5.93277228 C3.9911859,5.95397354 3.98536816,5.97518667 3.97990266,5.99616468 C3.97797529,6.00355917 3.97624756,6.01081215 3.97435536,6.01817676 C3.96874914,6.04008293 3.96314204,6.06198338 3.95788937,6.08364872 C3.95650244,6.08933368 3.95527997,6.09491888 3.95391678,6.10059198 C3.94838092,6.12374931 3.94289211,6.14687676 3.93773442,6.16975196 C3.936559,6.17497328 3.93552474,6.18008253 3.93436119,6.1852977 C3.9292013,6.20850162 3.92411222,6.23165895 3.91934062,6.25455173 C3.91847082,6.25877062 3.91769512,6.26289151 3.91683719,6.26709634 C3.91195962,6.29081136 3.90717615,6.31445607 3.90268642,6.3378305 C3.90162885,6.34333923 3.900712,6.34872931 3.89967773,6.35421607 C3.89552881,6.37620441 3.8914388,6.39814574 3.88764254,6.41981108 C3.88705461,6.42315104 3.88656123,6.42640662 3.88598517,6.42973031 C3.88187142,6.45342204 3.87788739,6.47699599 3.87417337,6.50030011 C3.87392667,6.50182682 3.87371516,6.50331881 3.8734799,6.50484553 C3.86951903,6.52984101 3.8657666,6.5546172 3.86222261,6.57917409 L3.86172878,6.58277992 C3.8581798,6.6075756 3.85483779,6.63214025 3.85170275,6.6564739 L3.85150267,6.65811223 C3.8483178,6.68302568 3.84534033,6.70767984 3.84257028,6.73207472 C3.84240581,6.73350167 3.8422884,6.73487633 3.84212394,6.73629757 C3.83949138,6.75977747 3.83703104,6.78301479 3.83474294,6.80600952 C3.83456704,6.80781837 3.83442545,6.80955691 3.83424911,6.8113596 C3.83206317,6.83387092 3.83000652,6.85619986 3.82816094,6.8782115 C3.82799648,6.88010868 3.82787907,6.88193511 3.82772604,6.88382614 C3.82395338,6.92938873 3.82085455,6.9738588 3.81842954,7.01723636 C3.81827651,7.01995579 3.81818284,7.02258073 3.81802982,7.02528829 C3.81330527,7.11256667 3.81111889,7.19522227 3.81091925,7.27261656 C3.81091925,7.27389673 3.81094256,7.27511846 3.81093112,7.27639247 C3.80640788,7.522059 3.82848714,7.76749383 3.87678365,8.00841454 C3.79118557,7.77316725 3.71095844,7.50886057 3.63786607,7.23946748 C3.63531559,7.23008835 3.63287108,7.22066835 3.63033204,7.21128307 C3.37354965,6.25732038 3.20652572,5.25020049 3.20652572,5.25020049 L3.20651253,5.25020049 L3.20651253,5.25019478 C3.09914785,5.39683065 2.99926575,5.5430518 2.90686624,5.68885824 C2.89848615,5.70206646 2.89061176,5.7152338 2.88233765,5.72842444 C2.86019464,5.76374449 2.83801646,5.79907597 2.81670807,5.83431384 C2.80871583,5.84752821 2.80124073,5.86068193 2.79336634,5.87388004 C2.7723517,5.90910033 2.75130188,5.94432678 2.73110999,5.97945215 C2.72894735,5.98321707 2.72694918,5.98696398 2.72478655,5.99073417 C2.69932924,6.03520454 2.67445179,6.07960034 2.65015421,6.12392158 C2.64676823,6.13013478 2.64363114,6.1363014 2.64026978,6.14251108 C2.61758634,6.18436163 2.59520851,6.22617131 2.57361781,6.26786937 C2.57189008,6.27120537 2.57030351,6.27452951 2.56857578,6.27786507 C2.54563376,6.32235858 2.52326356,6.36675819 2.50146516,6.41106391 C2.49825507,6.41761813 2.49530663,6.42413149 2.49210973,6.43067957 C2.47216453,6.47170831 2.45247834,6.51267817 2.43356741,6.55351091 C2.42906581,6.56320733 2.42492875,6.57283872 2.42049795,6.58252328 C2.4032677,6.62015142 2.38614342,6.65776022 2.36977153,6.69521389 C2.36556368,6.70483824 2.36169706,6.7143892 2.35754682,6.72399905 C2.341386,6.76142152 2.32533161,6.7988207 2.31000542,6.83605508 C2.30670255,6.8440657 2.30369386,6.85200777 2.30043804,6.86001664 C2.28464221,6.89880761 2.2690104,6.93756342 2.25409581,6.97613686 C2.25361209,6.97737616 2.25317895,6.9786036 2.252697,6.97984861 C2.23525406,7.02502359 2.21839216,7.07004182 2.2021113,7.11490332 C2.19856217,7.12471137 2.19534153,7.13442493 2.19183902,7.14422111 C2.17888741,7.18045746 2.16600573,7.21668194 2.15380607,7.25270075 C2.15004499,7.26380655 2.14664846,7.27479457 2.14295774,7.28587707 C2.13141637,7.32050409 2.11991019,7.3551311 2.10904998,7.38953486 C2.10646432,7.39774544 2.10413722,7.40586154 2.10158674,7.41406026 C2.09003351,7.4511773 2.07860955,7.48824775 2.06782014,7.52508265 C2.0656342,7.53255361 2.06368308,7.53992393 2.06153189,7.54737643 C2.05068355,7.58489295 2.04001155,7.62234486 2.02992747,7.6595621 C2.02924588,7.66208728 2.02864652,7.66457731 2.02796492,7.66710293 C2.01664665,7.70910642 2.00577882,7.75092386 1.99536143,7.79255526 C1.99471501,7.79514505 1.99415083,7.79769396 1.99351453,7.80027804 C1.98321909,7.84178844 1.97336207,7.88310474 1.96394346,7.92422695 C1.96370864,7.9253076 1.96349713,7.92637067 1.96323988,7.92745132 C1.95357884,7.9699599 1.94437996,8.01224523 1.93564324,8.05430731 C1.9349146,8.05778395 1.93430336,8.06120213 1.93359846,8.06467305 C1.91656799,8.14742314 1.90128109,8.22923541 1.88773774,8.31010985 C1.8873732,8.3123006 1.88706758,8.31445619 1.88670348,8.3166465 C1.59348616,10.0798216 2.10256164,11.3614548 2.10336241,11.3634575 C2.0959814,11.3450341 2.08718005,11.3270159 2.07873971,11.3088918 C2.07399054,11.298708 2.06997178,11.2883247 2.064906,11.278235 C2.05367025,11.2558766 2.04107219,11.2339291 2.02830704,11.212041 C2.02506309,11.206479 2.02234815,11.2007528 2.0190101,11.1952208 C2.00488307,11.171805 1.98952171,11.1488006 1.97377249,11.1259373 C1.97115121,11.1221315 1.96890635,11.1182084 1.96623846,11.1144144 C1.95352167,11.0963198 1.93966465,11.0786483 1.92598396,11.0609 C1.91959017,11.0526015 1.91374913,11.0440916 1.9071557,11.0358696 C1.89275779,11.0179099 1.87732607,11.000379 1.86203506,10.9827955 C1.85537127,10.9751312 1.84918899,10.9672497 1.8423603,10.95965 C1.82949092,10.9453436 1.81576318,10.9314599 1.80235293,10.9174061 C1.79230404,10.9068756 1.78270148,10.8961359 1.77237071,10.8857447 C1.76019437,10.8735173 1.74730125,10.8616891 1.73474893,10.8496674 C1.72241955,10.8378567 1.71046659,10.8258522 1.69781093,10.8142414 C1.65049248,10.7708462 1.60065917,10.7289719 1.54933339,10.6883545 C1.54523151,10.6851024 1.54130597,10.6817062 1.53716891,10.6784704 C1.48201125,10.6352922 1.42494777,10.5937528 1.36674844,10.5538403 L1.36496179,10.5525716 C1.27930478,10.4939127 1.19114478,10.4389299 1.10284318,10.3875649 C1.10016342,10.3860026 1.0975074,10.3843467 1.09482764,10.3827962 C0.746572707,10.1844822 0.379923694,10.0203305 0,9.89263854 L0,9.8926504 L0,9.89264425 C0.181268809,10.053675 0.317710724,10.2885584 0.423982653,10.5786417 C0.425746003,10.5834693 0.427626322,10.588103 0.429377359,10.59296 C0.543288857,10.9088255 0.621858609,11.2896286 0.683633886,11.7116595 C0.710677775,11.8964348 0.73457226,12.0890308 0.75664447,12.2878326 C0.765036431,12.363347 0.773208815,12.4396876 0.781161624,12.5168544 C0.800671921,12.7056586 0.819265364,12.8989376 0.838047015,13.0953702 C0.851774463,13.2389819 0.865807677,13.3840129 0.880146654,13.530463 C0.906097354,13.7926497 0.934093275,14.0580133 0.966743824,14.3232718 C0.976824378,14.4052215 0.98739656,14.4871016 0.998460369,14.5689121 Z M3.72273243,9.50968337 C4.15750449,10.6633566 4.26883033,13.1125701 3.46901722,12.6092864 C2.66919267,12.1060031 2.29712329,9.57906572 2.29712329,9.57906572 C2.29712329,9.57906572 2.83934271,10.3137734 2.97408064,9.76875642 C3.06667188,9.39418499 2.97408064,6.86097643 2.97408064,6.86097643 C2.97408064,6.86097643 3.48517803,8.87930325 3.72273243,9.50968337 Z M11.025734,8.42397736 C11.1171147,7.96174478 11.484518,6.50875152 11.484518,6.50875152 C12.6714677,8.74415362 11.5726415,10.1207761 11.5726415,10.1207761 C11.5726415,10.1207761 10.912199,8.99820707 11.025734,8.42397824 L11.025734,8.42397736 Z M9.59830351,14.1094288 L8.82649643,13.0279641 L8.74263839,12.8418147 L10.9626655,12.1935552 L11.7889236,12.7520054 L9.59830351,14.1094288 Z M7.72521651,12.8418147 L7.64135847,13.0279641 L6.86956503,14.1094288 L4.67893133,12.7520054 L5.50518897,12.193557 L7.72521651,12.8418147 Z M5.49069829,6.86097731 C5.41029527,6.22222797 6.88707716,3.68398618 6.88707716,3.68398618 C6.88707716,3.68398618 6.7783959,4.18828025 6.67613219,6.5780886 C6.57385616,8.96790267 5.05244745,9.12741246 5.05244745,9.12741246 C5.05244745,9.12741246 5.11875995,8.57436731 4.67893397,7.59004703 C4.239108,6.60573818 4.88582456,5.50111043 4.88582456,5.50111043 C4.82943167,6.68740762 5.49069829,6.86097731 5.49069829,6.86097731 Z M9.17956957,6.31376434 C10.6209912,6.5780886 10.8643401,4.49382662 10.8643401,4.49382662 C10.8643401,4.49382662 10.8986594,5.56911328 10.620989,6.5780886 C10.3900281,7.4173466 9.00793322,7.73575752 8.33024723,6.98351333 C7.03898861,5.55021088 7.85661244,3.68398662 7.85661244,3.68398662 C7.85661244,3.68398662 8.09714694,6.11527241 9.17956957,6.31376434 Z M12.8969284,6.5780886 C12.8969284,6.5780886 13.1529584,9.39418587 13.2455615,9.76875906 C13.3803113,10.313776 13.9225188,9.57906836 13.9225188,9.57906836 C13.9225188,9.57906836 13.7968193,11.8067763 12.9640975,12.2536156 C12.4735214,12.5168535 12.0068758,12.3556759 12.4966749,10.5197292 C12.7304801,9.6433186 12.8969284,6.5780886 12.8969284,6.5780886 L12.8969284,6.5780886 Z M2.3070196,16.1080807 C2.1873062,15.7330145 2.09536015,15.3496561 2.03192564,14.9611084 C2.09692548,15.0872345 2.17084435,15.2085664 2.25311959,15.3241807 C2.6133886,15.8192416 3.46901722,16.0442765 3.46901722,16.0442765 C2.25322556,15.3242453 2.10342001,11.3642595 2.10339627,11.3635428 C2.72105933,13.7699072 3.28972151,13.6354282 4.11733223,14.451165 C4.17222365,14.5499426 4.25062398,14.6336811 4.34560024,14.6949753 C5.30028468,15.7990335 6.20207964,17.8449387 6.20207964,17.8449387 L6.20207964,17.8449444 C6.26188889,17.6142581 6.34252901,17.3894742 6.44300727,17.1733598 L7.49342181,16.4272123 L6.9980622,15.6055142 L7.20251971,14.9118823 L6.44300859,15.1430948 L7.37019006,14.6228735 L7.20251795,15.4032024 L8.28566395,16.0821806 L9.36882182,15.4032024 L9.2011396,14.6228735 L10.1283215,15.1430948 L9.36882534,14.9118823 L9.57328285,15.6055142 L9.07793512,16.427218 L10.1283373,17.1733606 C10.2055767,17.3380653 10.2703842,17.5083116 10.3222178,17.6826756 C10.5057205,17.1701187 11.1134978,15.590233 11.7889275,15.119327 C11.848056,15.0777469 11.9018357,15.0290478 11.9490524,14.9743294 L11.950686,14.9733428 C13.1498824,14.2858771 14.1205733,11.8200315 14.2721194,11.4191254 L14.2917704,11.4256093 C14.2811103,11.9298502 14.1672366,15.3772144 13.0408837,16.0442774 C13.0408837,16.0442774 13.8965259,15.8192433 14.2567813,15.3241816 C14.2753383,15.2986696 14.2935689,15.2719183 14.3116333,15.244662 C14.2550003,15.5366912 14.1807256,15.8250253 14.0892169,16.1080816 C13.7966342,16.993507 13.3758955,17.5198123 12.7650611,17.7644035 C10.58967,18.6355098 9.05710648,19.9381333 8.24251993,20.6888622 C7.35891914,19.9043237 5.68877432,18.5883364 3.63115171,17.7644027 C3.02034108,17.5198114 2.59957863,16.9935061 2.3070196,16.1080807 Z" id="Shape" fill="#DFE0E1"></path>
                                    <polygon id="Path" fill="url(#linearGradient-1)" points="3.03454423 11.0314552 3.04534423 11.0432552 2.98524423 11.0510552"></polygon>
                                </g>
                                <path d="M3.42649059,8.55479647 C3.42649059,8.55479647 4.21194714,11.2741295 3.42649059,11.1892515 C2.64103405,11.1043735 2.37508049,10.0192322 2.37508049,10.0192322 C2.37508049,10.0192322 2.59822819,12.7862589 3.77558234,12.6765355 C4.9529365,12.5668122 3.42649059,8.55479647 3.42649059,8.55479647 Z" id="Path" fill="#EBEBEC"></path>
                                <path d="M13.9225188,9.57906836 C13.9225188,9.57906836 13.2880112,12.2073602 12.8923446,11.3635445 C12.496678,10.5197288 12.7674383,8.42567414 12.7674383,8.42567414 C12.7674383,8.42567414 12.0529374,11.0362027 12.2163349,11.7487713 C12.3797323,12.4613399 12.5373269,12.8725352 13.2532371,11.9989034 C13.9691473,11.1252715 13.9225188,9.57906836 13.9225188,9.57906836 Z" id="Path" fill="#EBEBEC"></path>
                                <path d="M6.88707584,3.68398618 C6.88707584,3.68398618 6.40448798,8.07081066 5.70637923,8.18334307 C5.14128905,8.27443294 4.67613504,8.06943776 4.54191732,6.56684745 C4.54191732,6.56684745 4.41552782,8.34765141 4.9181132,9.12741378 C5.42069859,9.90717614 7.14780267,10.0379698 7.01744013,6.86097863 L6.88707584,3.68398618 Z" id="Path" fill="#EBEBEC"></path>
                                <path d="M12.0000537,8.02388733 C12.0000537,8.02388733 11.8102126,9.06592955 11.5242598,9.25503049 C11.2383069,9.44413143 11.2296718,7.53796522 11.2296718,7.53796522 L11.025734,8.42397692 C11.025734,8.42397692 10.9245503,9.20565888 11.5726433,10.1207757 C11.5726433,10.1207757 12.2365962,9.80223027 12.0000537,8.02388733 Z" id="Path" fill="#EBEBEC"></path>
                                <path d="M10.8656883,5.06317077 C10.8656883,5.06317077 10.9214339,7.18800576 9.87227877,7.91801374 C8.82312364,8.64802173 7.13742705,8.20544831 7.66266862,4.31594662 C7.66266862,4.31594662 7.56366217,6.5087524 8.51821853,6.91317558 C8.94520723,7.09408088 10.3778961,7.59479504 10.8656883,5.06317077 Z" id="Path" fill="#EBEBEC"></path>
                                <path d="M9.59051135,5.30049015 C9.59051135,5.30049015 8.78266114,4.87159914 8.74263839,3.28847761 C8.70261563,1.70535608 9.05578903,1.09867032e-05 9.05578903,1.09867032e-05 C9.05578903,1.09867032e-05 7.97957902,2.58341208 8.33024811,4.08533352 C8.6809172,5.58725497 9.59051135,5.30049015 9.59051135,5.30049015 Z" id="Path" fill="#EBEBEC"></path>
                                <path d="M7.47554645e-06,9.89264776 C7.47554645e-06,9.89264776 1.28435033,11.0548836 1.33569326,12.0554765 C1.3870362,13.0560694 0.887696956,15.1441324 1.33569326,16.2262422 C1.33569326,16.2262422 0.781156347,12.5168517 0.683628609,11.7116569 C0.584385453,10.8922949 7.47554645e-06,9.89264776 7.47554645e-06,9.89264776 Z" id="Path" fill="#EBEBEC"></path>
                                <path d="M16.3145534,9.9203681 C16.3145534,9.9203681 15.7874975,10.8818804 15.6660753,12.0593562 C15.5446531,13.2368319 15.3124819,15.4153668 15.1179242,16.0262025 C15.1179242,16.0262025 14.7129528,12.2632637 15.2382366,11.3635428 C15.7635203,10.4638219 16.3145534,9.9203681 16.3145534,9.9203681 Z" id="Path" fill="#EBEBEC"></path>
                            </g>
                        </g>
                    </g>
                </g>
            </g>
        </g>
    </g>
</svg>