<?xml version="1.0" standalone="no"?>
<!DOCTYPE svg PUBLIC "-//W3C//DTD SVG 20010904//EN"
 "http://www.w3.org/TR/2001/REC-SVG-20010904/DTD/svg10.dtd">
<svg version="1.0" xmlns="http://www.w3.org/2000/svg"
 width="700.000000pt" height="700.000000pt" viewBox="0 0 700.000000 700.000000"
 preserveAspectRatio="xMidYMid meet">
<metadata>
Created by potrace 1.14, written by Peter Selinger 2001-2017
</metadata>
<g transform="translate(0.000000,700.000000) scale(0.100000,-0.100000)"
fill="#000000" stroke="none">
<path d="M3279 6996 c-2 -2 -43 -6 -91 -9 -232 -16 -553 -81 -783 -159 -796
-268 -1472 -807 -1900 -1513 -102 -169 -297 -578 -309 -650 -1 -5 -4 -15 -8
-20 -4 -6 -23 -66 -42 -134 -60 -206 -87 -328 -111 -511 -3 -25 -8 -54 -10
-65 -26 -127 -26 -788 0 -867 2 -7 6 -35 9 -63 3 -27 10 -75 16 -105 5 -30 12
-68 14 -85 7 -39 25 -117 43 -185 8 -30 17 -64 19 -75 5 -29 105 -328 113
-340 4 -5 20 -41 36 -80 46 -112 158 -331 230 -450 229 -377 550 -732 890
-983 39 -28 75 -56 81 -61 12 -10 155 -102 229 -148 44 -27 133 -76 245 -134
287 -149 749 -291 1055 -325 28 -3 56 -7 63 -10 51 -16 480 -25 564 -11 182
30 297 131 342 301 19 75 19 263 -1 331 -58 199 -189 289 -438 300 -204 9
-301 15 -325 19 -14 2 -47 7 -75 11 -27 3 -66 9 -85 11 -87 12 -351 82 -425
113 -11 5 -56 23 -100 41 -532 219 -960 600 -1259 1120 -141 245 -265 616
-292 875 -3 28 -8 61 -11 75 -10 44 -11 492 -2 570 43 351 118 602 270 897
176 345 424 633 759 885 153 115 416 259 595 327 33 13 76 29 95 36 126 50
380 104 560 122 108 10 411 10 515 0 391 -38 724 -149 1072 -358 69 -42 199
-131 245 -168 373 -301 632 -646 813 -1086 58 -140 119 -363 141 -512 3 -26 8
-57 10 -68 25 -138 25 -571 0 -701 -3 -12 -7 -37 -10 -55 -18 -117 -93 -264
-156 -309 -69 -49 -147 -71 -251 -71 -165 0 -305 86 -371 228 -35 74 -35 68
-42 503 -3 135 -7 261 -11 280 -3 19 -11 62 -16 95 -73 430 -356 853 -742
1106 -144 95 -364 194 -502 225 -169 39 -266 49 -460 48 -170 -1 -253 -11
-405 -50 -519 -134 -961 -529 -1159 -1035 -31 -79 -76 -239 -85 -299 -3 -19
-8 -57 -13 -85 -10 -66 -10 -393 0 -470 27 -202 108 -435 214 -617 140 -238
381 -480 621 -621 118 -70 351 -164 445 -181 15 -3 35 -7 45 -10 94 -29 419
-42 565 -23 287 38 635 215 860 440 18 18 21 17 90 -50 213 -205 460 -334 732
-384 79 -14 137 -17 275 -14 96 2 189 6 205 9 138 28 169 36 255 63 74 24 200
87 275 137 89 61 247 220 307 311 47 72 130 224 141 260 3 11 20 61 37 110 28
81 54 177 66 245 3 14 7 32 9 40 3 9 12 67 21 130 33 233 22 740 -20 956 -2
12 -7 39 -10 60 -19 124 -71 327 -121 474 -20 58 -37 110 -39 115 -12 41 -93
227 -144 330 -246 502 -611 937 -1067 1276 -92 68 -307 209 -320 209 -3 0 -24
12 -46 26 -53 33 -232 122 -329 163 -41 18 -84 36 -95 41 -71 31 -312 110
-336 110 -10 0 -20 4 -23 9 -3 4 -22 11 -43 14 -21 3 -76 15 -123 25 -47 11
-119 25 -160 32 -41 7 -82 14 -90 15 -8 2 -46 6 -85 10 -38 4 -79 10 -90 12
-23 5 -551 13 -556 9z m382 -2731 c244 -50 460 -258 548 -523 33 -103 44 -237
27 -364 -32 -256 -220 -509 -451 -605 -209 -88 -469 -72 -652 39 -368 223
-487 709 -270 1098 50 89 175 218 260 269 165 97 346 127 538 86z"/>
</g>
</svg>
